<svg display="none" xmlns="http://www.w3.org/2000/svg">
    <symbol id="icon-header" viewBox="0 0 20 21">
        <g>
            <path d="M10 0C15.5228 0 20 4.47715 20 10C20 15.5228 15.5228 20 10 20C8.38171 20 6.81782 19.6146 5.41286 18.888L1.58704 19.9553C0.922123 20.141 0.232581 19.7525 0.0469058 19.0876C-0.0145358 18.8676 -0.014506 18.6349 0.046948 18.4151L1.11461 14.5922C0.386366 13.186 0 11.6203 0 10C0 4.47715 4.47715 0 10 0ZM10 1.5C5.30558 1.5 1.5 5.30558 1.5 10C1.5 11.4696 1.87277 12.8834 2.57303 14.1375L2.72368 14.4072L1.61096 18.3914L5.59755 17.2792L5.86709 17.4295C7.12006 18.1281 8.53218 18.5 10 18.5C14.6944 18.5 18.5 14.6944 18.5 10C18.5 5.30558 14.6944 1.5 10 1.5ZM6.75 11H11.2483C11.6625 11 11.9983 11.3358 11.9983 11.75C11.9983 12.1297 11.7161 12.4435 11.35 12.4932L11.2483 12.5H6.75C6.33579 12.5 6 12.1642 6 11.75C6 11.3703 6.28215 11.0565 6.64823 11.0068L6.75 11H11.2483H6.75ZM6.75 7.5H13.2545C13.6687 7.5 14.0045 7.83579 14.0045 8.25C14.0045 8.6297 13.7223 8.94349 13.3563 8.99315L13.2545 9H6.75C6.33579 9 6 8.66421 6 8.25C6 7.8703 6.28215 7.55651 6.64823 7.50685L6.75 7.5H13.2545H6.75Z" fill="#A19F9D"/>
        </g>
    </symbol>
    <symbol id="attach" viewBox="0 0 14 16">
        <g>
            <path d="M1.82841 8.48527L7.48526 2.82842C8.65683 1.65684 10.5563 1.65684 11.7279 2.82842C12.8995 3.99999 12.8995 5.89948 11.7279 7.07106L5.01039 13.7886C4.4246 14.3744 3.47485 14.3744 2.88907 13.7886C2.30328 13.2028 2.30328 12.253 2.88907 11.6673L8.89948 5.65684C9.09474 5.46158 9.09474 5.145 8.89948 4.94974C8.70421 4.75448 8.38763 4.75448 8.19237 4.94974L2.18196 10.9601C1.20565 11.9365 1.20565 13.5194 2.18196 14.4957C3.15827 15.472 4.74118 15.472 5.71749 14.4957L12.435 7.77816C13.9971 6.21607 13.9971 3.68341 12.435 2.12131C10.8729 0.559213 8.34025 0.559213 6.77815 2.12131L1.1213 7.77816C0.926038 7.97343 0.926038 8.29001 1.1213 8.48527C1.31656 8.68053 1.63315 8.68053 1.82841 8.48527Z" fill="#605E5C"/>
        </g>
    </symbol>
    <symbol id="send" viewBox="0 0 20 20">
        <g>
            <path d="M10.8164 10.1973L3.28515 11.4525C3.10876 11.4819 2.96149 11.6032 2.89894 11.7708L0.301044 18.7282C0.0523705 19.3676 0.721794 19.9777 1.33546 19.6708L19.3355 10.6708C19.8882 10.3944 19.8882 9.60557 19.3355 9.32918L1.33546 0.329181C0.721794 0.0223491 0.0523705 0.632391 0.301044 1.27184L2.89894 8.22923C2.96149 8.39675 3.10876 8.51812 3.28515 8.54752L10.8164 9.80272C10.9253 9.82088 10.9989 9.92393 10.9808 10.0329C10.9667 10.1172 10.9007 10.1832 10.8164 10.1973Z" fill="#407EC9"/>
        </g>
    </symbol>
</svg>
